HIERARCHY
ROOT Hips
{
  OFFSET 0.000000 0.000000 0.000000
  CHANNELS 6 Xposition Yposition Zposition Xrotation Yrotation Zrotation
  JOINT Spine
  {
    OFFSET 1.388230 22.849755 -8.157144
    CHANNELS 3 Xrotation Yrotation Zrotation
    JOINT Chest
    {
      OFFSET 1.388230 22.849755 -8.157144
      CHANNELS 3 Xrotation Yrotation Zrotation
      JOINT Neck
      {
        OFFSET 0.386562 8.498444 -3.690407
        CHANNELS 3 Xrotation Yrotation Zrotation
        JOINT Head
        {
          OFFSET 0.662911 7.396516 -7.447500
          CHANNELS 3 Xrotation Yrotation Zrotation
          End Site
          {
            OFFSET 0.198873 2.218955 -2.234250
          }
        }
      }
      JOINT LeftShoulder
      {
        OFFSET 17.248308 -1.208605 -0.261267
        CHANNELS 3 Xrotation Yrotation Zrotation
        JOINT LeftArm
        {
          OFFSET 7.635523 -21.435821 1.774202
          CHANNELS 3 Xrotation Yrotation Zrotation
          JOINT LeftForeArm
          {
            OFFSET 7.643843 -21.327462 -9.147581
            CHANNELS 3 Xrotation Yrotation Zrotation
            JOINT LeftHand
            {
              OFFSET 0.473402 -5.275506 -2.178749
              CHANNELS 3 Xrotation Yrotation Zrotation
              End Site
              {
                OFFSET 0.142021 -1.582652 -0.653625
              }
            }
          }
        }
      }
      JOINT RightShoulder
      {
        OFFSET -17.248308 1.208605 0.261267
        CHANNELS 3 Xrotation Yrotation Zrotation
        JOINT RightArm
        {
          OFFSET -12.133127 -21.363330 5.693170
          CHANNELS 3 Xrotation Yrotation Zrotation
          JOINT RightForeArm
          {
            OFFSET -7.740244 -22.047532 -5.230031
            CHANNELS 3 Xrotation Yrotation Zrotation
            JOINT RightHand
            {
              OFFSET -0.480044 -5.557554 -1.525311
              CHANNELS 3 Xrotation Yrotation Zrotation
              End Site
              {
                OFFSET -0.144013 -1.667266 -0.457593
              }
            }
          }
        }
      }
    }
  }
  JOINT LeftUpLeg
  {
    OFFSET 11.699587 -0.675443 -0.599665
    CHANNELS 3 Xrotation Yrotation Zrotation
    JOINT LeftLeg
    {
      OFFSET -6.527727 -38.483662 1.737457
      CHANNELS 3 Xrotation Yrotation Zrotation
      JOINT LeftFoot
      {
        OFFSET 3.065902 -35.809878 12.679608
        CHANNELS 3 Xrotation Yrotation Zrotation
        End Site
        {
          OFFSET 0.919771 -10.742963 3.803882
        }
      }
    }
  }
  JOINT RightUpLeg
  {
    OFFSET -11.699587 0.675443 0.599665
    CHANNELS 3 Xrotation Yrotation Zrotation
    JOINT RightLeg
    {
      OFFSET -1.173808 -37.981520 -1.210152
      CHANNELS 3 Xrotation Yrotation Zrotation
      JOINT RightFoot
      {
        OFFSET -7.846448 -39.021816 7.691272
        CHANNELS 3 Xrotation Yrotation Zrotation
        End Site
        {
          OFFSET -2.353934 -11.706545 2.307382
        }
      }
    }
  }
}
MOTION
Frames: 8
Frame Time: 0.083333
0.000000 60.000000 0.000000 -0.761052 0.042716 -0.010551 -0.761052 0.042716 -0.010551 0.153164 0.017050 0.056179 0.099297 -0.012558 -0.003803 5.000000 0.000000 0.000000 -0.027464 0.034519 0.533513 0.681685 -0.102457 0.344506 71.201849 -31.231863 24.260194 0.000000 0.000000 0.000000 2.507782 -1.334604 0.356902 3.202876 -0.291517 0.207146 24.557309 29.376869 -58.135369 0.000000 0.000000 0.000000 -1.001668 0.212188 0.625120 -1.094247 0.414973 1.341369 0.000000 0.000000 0.000000 -7.778959 0.222937 -0.985764 1.262424 -0.039396 1.215890 0.000000 0.000000 0.000000
-0.000286 60.000000 -0.001820 -0.775103 0.044211 -0.008912 -0.775103 0.044211 -0.008912 0.152257 0.018262 0.058871 0.098879 -0.012284 -0.003566 5.000000 0.000000 0.000000 -0.138342 -0.008417 0.474633 0.660185 -0.088974 0.308823 36.349586 -35.551720 48.700248 0.000000 0.000000 0.000000 2.144296 -1.137399 0.323476 2.762762 -0.250145 0.173815 60.961116 30.335877 -35.174732 0.000000 0.000000 0.000000 -1.009085 0.214745 0.645192 -1.107409 0.416203 1.347403 0.000000 0.000000 0.000000 -7.799563 0.223963 -0.975198 1.235645 -0.034056 1.213923 0.000000 0.000000 0.000000
-0.000790 60.000000 -0.004627 -0.775621 0.044270 -0.008842 -0.775621 0.044270 -0.008842 0.152249 0.018305 0.058969 0.098889 -0.012274 -0.003555 5.000000 0.000000 0.000000 -0.664287 -0.125368 1.238925 1.776031 -0.222051 0.787708 33.675376 -35.987754 51.090685 0.000000 0.000000 0.000000 5.053109 -2.673488 0.795579 6.485110 -0.577857 0.376815 56.387327 30.858932 -38.350005 0.000000 0.000000 0.000000 -1.009227 0.214815 0.645950 -1.107680 0.416237 1.347557 0.000000 0.000000 0.000000 -7.800009 0.223991 -0.974831 1.234867 -0.033891 1.213909 0.000000 0.000000 0.000000
-0.001201 60.000000 -0.006090 -2.161961 0.142330 0.024566 -2.161961 0.142330 0.024566 0.236978 0.077188 0.203606 0.153400 -0.013684 -0.000218 5.000000 0.000000 0.000000 -1.352121 -0.321845 1.687081 2.253127 -0.268097 0.961621 32.072289 -36.193863 52.474232 0.000000 0.000000 0.000000 5.143857 -2.734845 0.741796 6.281295 -0.512472 0.209509 45.488071 31.335514 -45.651829 0.000000 0.000000 0.000000 -2.543388 0.556555 1.808923 -2.930996 1.004258 3.277636 0.000000 0.000000 0.000000 -10.857615 0.343634 0.194370 -4.272308 1.067919 0.851286 0.000000 0.000000 0.000000
-0.001558 60.000000 -0.006576 -3.055742 0.253554 0.170264 -3.055742 0.253554 0.170264 -0.028467 0.175105 0.399481 -0.010214 0.025294 0.024231 5.000000 0.000000 0.000000 -0.913195 -0.119048 2.272446 2.068388 -0.320672 1.054762 40.772928 -36.191566 46.569478 0.000000 0.000000 0.000000 5.366424 -2.975434 0.164326 5.633533 -0.349858 -0.170476 23.143976 30.759642 -61.317221 0.000000 0.000000 0.000000 -2.784563 0.672742 2.904374 -3.595509 0.974101 3.292459 0.000000 0.000000 0.000000 -12.099249 0.382141 0.173263 -3.629814 0.999301 1.136020 0.000000 0.000000 0.000000
-0.002025 60.000000 -0.006808 -3.272165 0.325639 0.318652 -3.272165 0.325639 0.318652 0.035882 0.227810 0.529442 0.068558 0.037875 0.043863 5.000000 0.000000 0.000000 -0.537550 0.025771 2.487549 2.315889 -0.324508 1.094736 7.058076 -34.028308 68.736707 0.000000 0.000000 0.000000 5.761070 -3.362716 -0.667989 6.000954 -0.268871 -0.531742 16.993478 29.938378 -65.466022 0.000000 0.000000 0.000000 -1.982081 0.599431 4.159540 -2.878019 0.599404 2.218206 0.000000 0.000000 0.000000 -10.666488 0.379067 0.813663 -2.925873 0.819627 1.013384 0.000000 0.000000 0.000000
-0.002993 60.000000 -0.006484 -3.941090 0.447478 0.512848 -3.941090 0.447478 0.512848 -0.007777 0.272369 0.624280 0.054752 0.064486 0.068744 5.000000 0.000000 0.000000 -1.081044 -0.164042 2.395819 3.732596 -0.455011 1.545849 -27.747733 -6.442188 50.821714 0.000000 0.000000 0.000000 5.687795 -3.483041 -1.495454 6.551958 -0.305984 -0.534023 20.336037 30.406559 -63.191876 0.000000 0.000000 0.000000 -1.704053 0.574871 4.687799 -2.491661 0.566841 2.066719 0.000000 0.000000 0.000000 -10.260435 0.377469 1.041870 -2.995483 0.871522 1.176520 0.000000 0.000000 0.000000
-0.004221 60.000000 -0.006677 -4.815133 0.649222 0.863515 -4.815133 0.649222 0.863515 -0.302860 0.337885 0.725941 -0.158837 0.142512 0.125199 5.000000 0.000000 0.000000 -2.627009 -0.636445 2.562273 6.962271 -1.013414 3.055374 0.000000 0.000000 0.000000 0.000000 0.000000 0.000000 6.485791 -4.157904 -2.866611 8.082370 -0.469262 -0.349890 38.671767 32.359521 -51.659290 0.000000 0.000000 0.000000 -1.590332 0.557260 4.804070 -2.648652 0.488150 1.887792 0.000000 0.000000 0.000000 -10.451588 0.391724 1.152948 -3.523807 0.997877 1.231617 0.000000 0.000000 0.000000
